<svg width="0" height="0" class="hidden">
  <symbol xmlns="http://www.w3.org/2000/svg" viewBox="0 0 25 25" id="LinkedIn">
    <path d="M23.0568 0.250488C23.9675 0.250488 24.7711 1.05406 24.7711 2.01835V22.5362C24.7711 23.5005 23.9675 24.2505 23.0568 24.2505H2.43183C1.52112 24.2505 0.771118 23.5005 0.771118 22.5362V2.01835C0.771118 1.05406 1.52112 0.250488 2.43183 0.250488H23.0568ZM8.00326 20.8219V9.4112H4.46755V20.8219H8.00326ZM6.2354 7.80406C7.3604 7.80406 8.27112 6.89335 8.27112 5.76835C8.27112 4.64335 7.3604 3.67906 6.2354 3.67906C5.05683 3.67906 4.14612 4.64335 4.14612 5.76835C4.14612 6.89335 5.05683 7.80406 6.2354 7.80406ZM21.3425 20.8219V14.5541C21.3425 11.5005 20.6461 9.08977 17.0568 9.08977C15.3425 9.08977 14.164 10.0541 13.6818 10.9648H13.6283V9.4112H10.2533V20.8219H13.789V15.1969C13.789 13.6969 14.0568 12.2505 15.9318 12.2505C17.7533 12.2505 17.7533 13.9648 17.7533 15.2505V20.8219H21.3425Z"></path>
  </symbol>
  <symbol xmlns="http://www.w3.org/2000/svg" viewBox="0 0 24 24" id="facebook">
    <path d="M24.0004 12.2505C24.0004 5.62313 18.6277 0.250488 12.0004 0.250488C5.37301 0.250488 0.000366211 5.62313 0.000366211 12.2505C0.000366211 17.878 3.87493 22.6003 9.10165 23.8972V15.9177H6.62725V12.2505H9.10165V10.6703C9.10165 6.58601 10.9501 4.69289 14.96 4.69289C15.7204 4.69289 17.0322 4.84217 17.5688 4.99097V8.31497C17.2856 8.28521 16.7936 8.27033 16.1826 8.27033C14.2151 8.27033 13.4548 9.01577 13.4548 10.9535V12.2505H17.3744L16.701 15.9177H13.4548V24.1627C19.3957 23.4451 24.0004 18.3858 24.0004 12.2505Z"></path>
  </symbol>
  <symbol xmlns="http://www.w3.org/2000/svg" viewBox="0 0 24 24" id="icon">
    <path d="M12.0006 -0.000152588C8.7416 -0.000152588 8.3326 0.0140978 7.05259 0.0723484C5.77507 0.130849 4.90306 0.333101 4.14005 0.629854C3.3508 0.936358 2.68129 1.34636 2.01428 2.01362C1.34678 2.68063 0.936771 3.35013 0.629268 4.13914C0.331765 4.9024 0.129263 5.77466 0.0717624 7.05167C0.0145118 8.33169 -0.000488281 8.74094 -0.000488281 12C-0.000488281 15.259 0.0140121 15.6668 0.0720127 16.9468C0.130763 18.2243 0.333015 19.0963 0.629518 19.8593C0.936272 20.6486 1.34628 21.3181 2.01353 21.9851C2.68029 22.6526 3.3498 23.0636 4.13855 23.3701C4.90206 23.6669 5.77432 23.8691 7.05158 23.9276C8.3316 23.9859 8.74035 24.0001 11.9991 24.0001C15.2584 24.0001 15.6662 23.9859 16.9462 23.9276C18.2237 23.8691 19.0967 23.6669 19.8602 23.3701C20.6492 23.0636 21.3177 22.6526 21.9845 21.9851C22.652 21.3181 23.062 20.6486 23.3695 19.8596C23.6645 19.0963 23.867 18.224 23.927 16.947C23.9845 15.667 23.9995 15.259 23.9995 12C23.9995 8.74094 23.9845 8.33194 23.927 7.05192C23.867 5.77441 23.6645 4.9024 23.3695 4.13939C23.062 3.35013 22.652 2.68063 21.9845 2.01362C21.317 1.34611 20.6495 0.936108 19.8595 0.629854C19.0945 0.333101 18.222 0.130849 16.9444 0.0723484C15.6644 0.0140978 15.2569 -0.000152588 11.9969 -0.000152588H12.0006ZM10.9241 2.16237C11.2436 2.16187 11.6001 2.16237 12.0006 2.16237C15.2047 2.16237 15.5844 2.17387 16.8497 2.23137C18.0197 2.28487 18.6547 2.48037 19.0777 2.64463C19.6377 2.86213 20.037 3.12213 20.4567 3.54214C20.8767 3.96214 21.1367 4.36214 21.3547 4.92215C21.519 5.34466 21.7147 5.97966 21.768 7.14967C21.8255 8.41469 21.838 8.79469 21.838 11.9972C21.838 15.1998 21.8255 15.5798 21.768 16.8448C21.7145 18.0148 21.519 18.6498 21.3547 19.0723C21.1372 19.6323 20.8767 20.0311 20.4567 20.4508C20.0367 20.8708 19.638 21.1308 19.0777 21.3483C18.6552 21.5133 18.0197 21.7083 16.8497 21.7618C15.5847 21.8193 15.2047 21.8318 12.0006 21.8318C8.79635 21.8318 8.4166 21.8193 7.15159 21.7618C5.98157 21.7078 5.34657 21.5123 4.92331 21.3481C4.36331 21.1306 3.9633 20.8706 3.5433 20.4506C3.12329 20.0306 2.86329 19.6316 2.64529 19.0713C2.48104 18.6488 2.28529 18.0138 2.23203 16.8438C2.17453 15.5788 2.16303 15.1988 2.16303 11.9942C2.16303 8.78969 2.17453 8.41169 2.23203 7.14668C2.28554 5.97666 2.48104 5.34166 2.64529 4.91865C2.86279 4.35864 3.12329 3.95864 3.5433 3.53864C3.9633 3.11863 4.36331 2.85863 4.92331 2.64063C5.34632 2.47562 5.98157 2.28062 7.15159 2.22687C8.2586 2.17687 8.6876 2.16187 10.9241 2.15937V2.16237ZM18.4062 4.15489C17.6112 4.15489 16.9662 4.79915 16.9662 5.59441C16.9662 6.38942 17.6112 7.03442 18.4062 7.03442C19.2012 7.03442 19.8462 6.38942 19.8462 5.59441C19.8462 4.7994 19.2012 4.15439 18.4062 4.15439V4.15489ZM12.0006 5.83741C8.59735 5.83741 5.83807 8.59669 5.83807 12C5.83807 15.4033 8.59735 18.1613 12.0006 18.1613C15.4039 18.1613 18.1622 15.4033 18.1622 12C18.1622 8.59669 15.4039 5.83741 12.0006 5.83741ZM12.0006 7.99993C14.2097 7.99993 16.0007 9.7907 16.0007 12C16.0007 14.209 14.2097 16 12.0006 16C9.79136 16 8.0006 14.209 8.0006 12C8.0006 9.7907 9.79136 7.99993 12.0006 7.99993Z"></path>
  </symbol>
  <symbol xmlns="http://www.w3.org/2000/svg" viewBox="0 0 25 25" id="Telegram">
    <path d="M12.1469 0.250488C18.7275 0.250488 24.1469 5.66984 24.1469 12.2505C24.1469 18.8795 18.7275 24.2505 12.1469 24.2505C5.51782 24.2505 0.146851 18.8795 0.146851 12.2505C0.146851 5.66984 5.51782 0.250488 12.1469 0.250488ZM17.663 8.42791C17.7114 8.28275 17.7114 8.13759 17.663 7.94404C17.663 7.84726 17.5662 7.7021 17.5178 7.65371C17.3727 7.50855 17.1307 7.50855 17.0339 7.50855C16.5985 7.50855 15.8727 7.75049 12.5339 9.15371C11.3727 9.63758 9.05008 10.6053 5.56621 12.1537C4.98556 12.3956 4.69524 12.5892 4.64685 12.8311C4.59846 13.2182 5.2275 13.3634 5.9533 13.6053C6.58233 13.7989 7.40492 14.0408 7.8404 14.0408C8.2275 14.0408 8.66298 13.8956 9.14685 13.5569C12.3888 11.3311 14.0823 10.2182 14.1791 10.2182C14.2759 10.2182 14.3727 10.1698 14.421 10.2182C14.5178 10.315 14.5178 10.4118 14.4694 10.4602C14.421 10.7021 11.3727 13.5086 11.1791 13.7021C10.5017 14.3795 9.7275 14.815 10.9372 15.5892C11.9533 16.2666 12.5339 16.7021 13.5985 17.3795C14.2759 17.815 14.8081 18.3473 15.4856 18.2989C15.8243 18.2505 16.163 17.9602 16.3081 17.0408C16.7436 14.9602 17.5178 10.315 17.663 8.42791Z"></path>
  </symbol>
</svg>