<svg width="144" height="40" viewBox="0 0 144 40" fill="none" xmlns="http://www.w3.org/2000/svg">
<g clip-path="url(#clip0_4003_500)">
<path fill-rule="evenodd" clip-rule="evenodd" d="M74.4566 22.4212V22.5883H65.8235V22.4212C65.8404 22.3566 65.8728 22.2489 65.9162 22.1042C66.209 21.1286 67.0066 18.4714 67.0066 16.0043V9.17021C67.0066 6.37818 65.0777 5.25296 62.9744 5.25296C61.5535 5.25296 60.1522 6.23883 59.8192 7.0537V8.33626V16.0043C59.8192 18.5121 60.6087 21.2163 60.8816 22.151C60.917 22.2723 60.9437 22.3638 60.9589 22.4212V22.5883H52.3248V22.4212C52.3426 22.3198 52.4 22.1122 52.4804 21.8218C52.7961 20.6807 53.4651 18.2628 53.4651 16.0043V9.17021C53.4651 6.37818 51.4924 5.25296 49.4329 5.25296C47.955 5.25296 46.6283 6.08994 46.102 7.0485V16.0043C46.102 18.2633 46.7703 20.6818 47.0855 21.8226C47.1657 22.1125 47.223 22.3199 47.2407 22.4212V22.5883H38.6514V22.4212C38.6691 22.3199 38.7265 22.1124 38.8067 21.8222C39.1222 20.6813 39.7908 18.2631 39.7908 16.0043V8.17004C39.7908 5.99937 39.1736 4.33911 38.8454 3.45621C38.7451 3.18647 38.6718 2.98928 38.6514 2.87228V2.7054L46.102 1.58603V5.12835C47.7232 2.96135 49.9147 1.33594 53.0264 1.33594C55.919 1.33594 58.4175 2.66964 59.3812 5.50328C61.0024 3.08618 63.2814 1.33594 66.5686 1.33594C70.2931 1.33594 73.3179 3.58594 73.3179 8.33626V16.0043C73.3179 18.2633 73.9862 20.6818 74.3014 21.8226C74.3815 22.1125 74.4389 22.3199 74.4566 22.4212ZM99.12 22.4214V22.5885H93.0292C92.6339 21.7968 92.1074 20.4215 91.8458 18.9215C90.2674 21.2548 88.0761 22.9634 84.7459 22.9634C80.8885 22.9634 77.5147 20.7134 77.5147 15.9622V8.17018C77.5147 5.998 76.8966 4.33694 76.5682 3.45451C76.4682 3.18571 76.395 2.98916 76.3744 2.87242V2.70555L83.9133 1.58618V15.1291C83.9133 18.0044 85.6658 19.0878 87.6816 19.0878C89.4166 19.0878 91.1775 17.9125 91.6256 17.3791L91.6165 17.2842C91.5998 17.1098 91.5914 17.0217 91.5871 16.9335C91.5827 16.8434 91.5827 16.7531 91.5828 16.5707V16.5458V8.17018C91.5828 5.998 90.9646 4.33694 90.6362 3.45451C90.5362 3.18571 90.463 2.98916 90.4424 2.87242V2.70555L97.9369 1.58618V16.0045C97.9369 18.4714 98.7344 21.1285 99.0272 22.1042C99.0706 22.2487 99.1031 22.3568 99.12 22.4214ZM128.75 10.2982V9.90208C128.75 6.52685 129.685 3.12042 132.796 3.12042C135.689 3.12042 136.552 6.21174 136.638 9.37826L128.75 10.2982ZM142.731 16.6705L142.555 16.5873C140.058 18.3377 137.998 19.0046 135.718 19.0046C131.292 19.0046 129.277 15.9213 128.838 11.6291H142.993C142.993 6.41979 140.146 1.33594 132.957 1.33594C126.428 1.33594 121.826 5.3778 121.826 12.1289C121.826 19.4628 127.391 22.9626 132.87 22.9626C138.173 22.9626 141.548 19.6298 142.731 16.6705ZM101.992 21.2138L102.581 15.3799H102.756C103.234 15.8424 103.707 16.3321 104.182 16.823C106.272 18.9856 108.385 21.1722 111.063 21.1722C112.773 21.1722 114.394 20.3391 114.394 18.5887C114.394 16.6297 112.291 15.9213 108.697 14.713C104.096 13.1299 101.422 11.0884 101.422 7.7127C101.422 3.67063 105.147 1.33675 110.582 1.33675C112.554 1.33675 115.534 1.71168 118.514 2.87894L117.926 8.46191H117.751C117.565 8.26039 117.381 8.05839 117.197 7.85713L117.195 7.85506C114.949 5.39457 112.804 3.04538 109.968 3.04538C108.346 3.04538 106.77 3.79546 106.77 5.37861C106.77 7.27976 109 8.00357 112.297 9.07355L112.597 9.17102C117.769 10.879 119.522 13.0876 119.522 16.0892C119.522 20.9219 115.183 22.9634 110.669 22.9634C108.61 22.9634 105.586 22.5475 101.992 21.2138ZM40.8155 31.0211C40.8155 32.2702 41.2417 33.3842 42.1471 33.3842C43.0702 33.3842 43.5139 32.2702 43.5139 31.0211C43.5139 29.7723 43.0702 28.6748 42.1471 28.6748C41.2417 28.6748 40.8155 29.7723 40.8155 31.0211ZM43.9219 37.3168H40.9575C40.4429 37.3168 40.0344 37.2663 39.6973 37.1651V37.2832C39.6795 38.3803 40.4249 39.2918 42.5019 39.2918C43.8513 39.2918 45.2535 38.8868 45.2535 38.1271C45.2535 37.6376 44.8808 37.3168 43.9219 37.3168ZM46.6734 28.8101L46.6203 28.8437C46.0701 28.5567 45.3955 28.4217 44.6144 28.6579C45.4488 29.1477 46.0523 29.924 46.0523 31.0044C46.0523 33.0468 43.9219 34.0257 42.1471 34.0257C41.6675 34.0257 41.1529 33.9581 40.6738 33.8061C40.2653 33.9243 39.928 34.1438 39.928 34.4643C39.928 34.9032 40.4606 34.9541 41.1175 34.9541H44.0108C45.8392 34.9541 46.8865 35.8318 46.8865 37.3508C46.8865 39.5449 44.3128 40.0007 42.2713 40.0007C41.0286 40.0007 38.2773 39.7812 38.2773 38.0936C38.2773 37.604 38.508 37.1313 38.9162 36.7598C38.4722 36.3886 38.3305 35.899 38.3305 35.4602C38.3305 34.4476 39.0049 33.84 40.0875 33.5699C39.076 33.0973 38.2949 32.2533 38.2949 31.0044C38.2949 28.9787 40.3895 28.0166 42.1471 28.0166C42.8393 28.0166 43.5848 28.1519 44.2417 28.4555C44.7032 27.4428 45.5908 26.717 47.0465 26.9027L46.6734 28.8101ZM50.7402 29.7547V28.1176L47.7047 28.5742V28.6418C47.713 28.6894 47.7427 28.7693 47.7835 28.8786C47.9164 29.2355 48.166 29.9058 48.166 30.7846V33.9576C48.166 34.8727 47.8953 35.852 47.7676 36.3142C47.7351 36.4318 47.7119 36.5159 47.7047 36.557V36.6246H51.2195V36.557C51.2127 36.5311 51.1998 36.4881 51.1824 36.4303C51.0642 36.0368 50.7402 34.9587 50.7402 33.9576V30.2107C51.9651 29.4004 53.2077 29.974 53.9886 30.7336H54.0597L54.4681 28.1007C52.6039 27.5268 51.3971 28.4722 50.7402 29.7547ZM57.8059 32.3541C57.8059 34.1769 58.2674 36.1012 59.5632 36.1012C60.8411 36.1012 61.3385 34.1941 61.3385 32.3541C61.3385 30.5312 60.8411 28.6915 59.5632 28.6915C58.2852 28.6915 57.8059 30.5481 57.8059 32.3541ZM54.9299 32.3541C54.9299 29.434 57.0779 28.0162 59.5632 28.0162C62.0485 28.0162 64.2318 29.4511 64.2318 32.3541C64.2318 35.2744 62.0485 36.7934 59.5632 36.7934C57.0779 36.7934 54.9299 35.2744 54.9299 32.3541ZM73.8015 28.1171L70.766 28.5739V28.6416C70.7743 28.6889 70.804 28.7685 70.8445 28.8774C70.9774 29.234 71.2273 29.9046 71.2273 30.7841V34.1766C71.2273 34.3328 71.2425 34.4888 71.259 34.6584L71.2631 34.6998C70.7482 35.0039 70.1802 35.2063 69.6475 35.2063C68.8309 35.2063 68.1209 34.7676 68.1209 33.6028V28.1171L65.0676 28.5739V28.6416C65.0759 28.6889 65.1056 28.7685 65.1462 28.8774C65.2792 29.234 65.5292 29.9046 65.5292 30.7841V33.9404C65.5292 35.8647 66.896 36.776 68.4582 36.776C69.8075 36.776 70.6951 36.084 71.334 35.1387C71.4404 35.7466 71.6535 36.3035 71.8131 36.6241H74.2806V36.5564C74.2737 36.5301 74.2604 36.4859 74.2426 36.4264C74.1237 36.03 73.8015 34.9553 73.8015 33.9571V28.1171ZM78.3106 35.1054C78.7188 35.3754 79.1448 35.5442 79.6064 35.5442C81.0444 35.5442 81.5948 34.0083 81.5948 32.3203C81.5948 30.7844 81.0797 29.4171 79.7306 29.4171C79.2337 29.4171 78.7544 29.6364 78.3106 30.0081V35.1054ZM78.3106 29.299C78.9142 28.455 79.8726 28.0162 80.9201 28.0162C82.7839 28.0162 84.3992 29.4511 84.3992 32.2698C84.3992 35.3585 82.4821 36.7763 80.707 36.7763C79.9259 36.7763 79.0028 36.5063 78.3106 35.73V37.3335C78.3106 38.2496 78.582 39.2304 78.7096 39.6919C78.7419 39.8085 78.765 39.892 78.7722 39.9328V40.0002H75.2573V39.9328C75.2645 39.8916 75.2879 39.8071 75.3205 39.689C75.4484 39.2263 75.7189 38.2476 75.7189 37.3335V30.8349C75.7189 29.9667 75.4749 29.2727 75.3409 28.8912C75.2977 28.7685 75.2659 28.6781 75.2573 28.6247L75.2396 28.5742L78.3106 28.1174V29.299Z" fill="#19191A"/>
<path fill-rule="evenodd" clip-rule="evenodd" d="M5.13014 0H0V5.19157C1.41861 3.22027 3.14902 1.46894 5.13014 0ZM2.33897 12.7454C2.1703 12.3662 2.9065 11.4622 3.15175 11.1705C3.57022 10.7154 4.09582 10.3606 4.68546 10.135C5.1796 9.91548 5.71318 9.78696 6.25746 9.75597C7.26147 9.76919 8.23836 10.0663 9.06413 10.609C9.49947 10.8697 9.88125 11.2032 10.1915 11.5933C10.4935 12.0302 10.6778 12.5311 10.7282 13.0517C10.7537 13.2482 10.8107 13.44 10.8971 13.6203C11.0154 13.771 11.118 13.9322 11.2037 14.1017C11.2597 14.2547 11.2073 14.4246 11.0733 14.5245C10.9468 14.5802 10.8012 14.5802 10.6747 14.5245C10.4998 14.4763 10.3249 14.4349 10.1501 14.3936C9.84949 14.3226 9.5489 14.2515 9.2483 14.1454C8.81889 14.01 8.3774 13.9123 7.92929 13.8537C7.46002 13.7775 6.98883 13.723 6.51855 13.6686C6.04366 13.6137 5.5697 13.5588 5.0996 13.4818C4.0108 13.307 2.47709 13.0443 2.33897 12.7454ZM11.6486 15.9245C12.9197 14.796 13.9167 13.4175 14.5701 11.885C15.1915 10.4267 15.5288 8.77162 14.7926 7.32782C14.0564 5.88402 12.2084 5.10382 10.6133 4.66648C9.07029 4.30715 7.4682 4.2378 5.89711 4.46233C3.38948 4.76855 0.766969 7.24763 0 8.02046V16.3621C1.62579 16.5443 9.96923 17.3828 11.6486 15.9245ZM24.3402 16.6321C24.2039 16.7818 24.0434 16.9097 23.8647 17.0113C23.6742 17.0653 23.4914 17.1414 23.3202 17.2374C23.1809 17.3306 23.1194 17.4975 23.1668 17.6531C23.2343 17.7679 23.3478 17.852 23.4814 17.8863C23.6678 17.9463 23.8483 18.012 24.0285 18.0776C24.3078 18.1792 24.5863 18.2805 24.8847 18.3602C25.323 18.4877 25.749 18.6511 26.1576 18.8487C26.5706 19.0381 26.9747 19.2443 27.3785 19.4504C27.8145 19.6729 28.25 19.8951 28.6958 20.0957L28.9718 20.2197V23.3039C26.4484 23.3829 25.1266 22.3852 24.1851 21.6745C23.5617 21.2039 23.105 20.8591 22.5765 21.0363C22.0063 21.2281 22.0286 22.7928 22.0378 23.4307C22.0387 23.4963 22.0395 23.5521 22.0395 23.5956V27.2415C21.9695 28.2269 22.0944 29.2162 22.4076 30.1581C22.9061 31.2298 23.3355 31.4049 24.2176 31.4049C25.0994 31.4049 28.4351 30.2455 28.9718 28.7871V39.9433H10.8053L6.43413 37.1944C6.02022 36.932 5.07684 35.9476 5.07684 35.4736C5.07684 34.9997 6.29624 34.3216 6.70263 34.2704C6.92392 34.2427 7.24531 34.4224 7.58626 34.6132C7.87145 34.7727 8.17032 34.9399 8.43577 34.9997C9.20046 34.9958 9.9631 34.9225 10.7132 34.7808C11.0451 34.7808 11.7083 35.2575 12.284 35.6714C12.6394 35.9269 12.9615 36.1585 13.1518 36.2391C13.7679 36.4199 14.422 36.45 15.0536 36.3267C15.506 36.2391 15.9124 35.984 15.9584 35.7287C16.0163 35.399 15.3161 34.7781 14.9291 34.4349C14.8539 34.3682 14.7905 34.3119 14.7468 34.2704C14.2237 33.6246 13.4716 33.1814 12.6303 33.0236C12.1849 33.065 11.7357 33.0455 11.296 32.9653C10.8415 32.7273 10.4301 32.4222 10.0768 32.0611C9.36366 31.4632 7.58447 31.9881 6.71038 32.2727C5.976 32.5527 5.19946 32.72 4.4097 32.7683C3.17503 32.7683 2.45433 32.3381 2.40829 32.0393C2.36225 31.7402 2.97582 31.4925 3.31315 31.4049C3.68057 31.2764 4.02884 31.1022 4.34839 30.8872C4.84256 30.628 5.33689 30.359 5.82675 30.0924C5.92974 30.0364 6.03254 29.9804 6.13509 29.9247C6.23061 29.8728 6.32741 29.8196 6.42541 29.7657C7.59425 29.1228 8.93423 28.3857 10.3068 28.7288C10.66 28.817 11.0766 29.113 11.4705 29.3928C11.7609 29.599 12.0389 29.7965 12.2699 29.8954C12.7055 30.0658 13.1657 30.1716 13.635 30.209C13.34 29.702 13.0133 29.1702 12.7423 28.729C12.4637 28.2754 12.2439 27.9177 12.1779 27.7809C11.9572 27.1524 11.5431 26.6011 10.9892 26.1986C10.5628 25.9482 10.0564 26.0121 9.55109 26.0759C9.12972 26.1291 8.70903 26.1823 8.33594 26.053C7.66972 25.7099 7.27426 25.0292 7.32372 24.3101C7.32372 23.5988 8.06876 22.9977 8.6553 22.5245C8.76016 22.4399 8.85995 22.3594 8.94952 22.2831C9.66543 21.6704 10.4748 21.1639 11.3498 20.781C12.4003 20.3437 13.8957 19.7748 15.0996 20.052C15.692 20.3235 16.3441 20.4561 17.0014 20.4384C17.304 20.388 17.2098 19.9359 17.1231 19.5197C17.0846 19.3345 17.0475 19.1563 17.0475 19.0238C17.0475 18.0275 17.4268 17.0876 17.8008 16.1605C17.9113 15.8868 18.0213 15.6141 18.121 15.3415C18.7268 13.6864 19.4017 11.9292 20.7437 10.6603C22.8525 8.62617 26.3876 8.58954 28.9873 9.96768V15.8957C28.4057 15.6978 27.7951 15.5871 27.1776 15.5675C26.6579 15.5431 26.1381 15.6098 25.6439 15.7645C25.1429 15.9509 24.696 16.2485 24.3402 16.6321Z" fill="#19191A"/>
</g>
<defs>
<clipPath id="clip0_4003_500">
<rect width="144" height="40" fill="white"/>
</clipPath>
</defs>
</svg>
